<?xml version="1.0" encoding="iso-8859-1"?>
<!-- Generator: Adobe Illustrator 17.0.0, SVG Export Plug-In . SVG Version: 6.00 Build 0)  -->
<!DOCTYPE svg PUBLIC "-//W3C//DTD SVG 1.1//EN" "http://www.w3.org/Graphics/SVG/1.1/DTD/svg11.dtd">
<svg version="1.1" id="&#x56FE;&#x5C42;_1" xmlns="http://www.w3.org/2000/svg" xmlns:xlink="http://www.w3.org/1999/xlink" x="0px"
	 y="0px" width="44px" height="44px" viewBox="0 0 44 44" style="enable-background:new 0 0 44 44;" xml:space="preserve">
<g>
	<path style="fill:#DCDBDB;" d="M38.799,18.128l-8.118-2.394c-1.267-0.373-2.844-1.519-3.591-2.608l-4.784-6.98
		c-0.249-0.363-0.363-0.363-0.612,0l-4.784,6.98c-0.746,1.089-2.323,2.235-3.59,2.609l-8.118,2.393
		c-0.211,0.062-0.309,0.154-0.328,0.215c-0.02,0.06,0.005,0.192,0.139,0.367l5.161,6.707c0.806,1.047,1.408,2.901,1.372,4.222
		l-0.232,8.459c-0.005,0.197,0.042,0.318,0.088,0.366c0.019,0.019,0.18,0.076,0.406-0.007l7.975-2.835
		c0.605-0.216,1.394-0.334,2.219-0.334s1.614,0.118,2.22,0.334l7.974,2.835c0.229,0.084,0.389,0.025,0.407,0.007
		c0.046-0.048,0.093-0.169,0.088-0.366l-0.232-8.459c-0.037-1.32,0.566-3.175,1.372-4.222l5.161-6.707
		c0.134-0.175,0.159-0.308,0.139-0.367C39.107,18.282,39.01,18.19,38.799,18.128z"/>
	<path style="fill:#666767;" d="M41.029,17.724c-0.234-0.72-0.841-1.271-1.665-1.514l-8.118-2.394
		c-0.84-0.247-2.011-1.099-2.506-1.821l-4.784-6.98C23.47,4.306,22.757,3.899,22,3.899s-1.47,0.406-1.956,1.115l-4.784,6.98
		c-0.495,0.723-1.667,1.574-2.507,1.822L4.636,16.21c-0.824,0.242-1.431,0.794-1.666,1.514c-0.234,0.721-0.068,1.524,0.457,2.205
		l5.161,6.707c0.534,0.694,0.981,2.072,0.958,2.948l-0.232,8.459c-0.02,0.717,0.212,1.361,0.653,1.815
		c0.61,0.627,1.574,0.815,2.51,0.483l7.975-2.835c0.781-0.279,2.316-0.279,3.098,0l7.974,2.835c0.311,0.11,0.623,0.167,0.928,0.167
		c0.613,0,1.175-0.231,1.583-0.65c0.441-0.454,0.673-1.099,0.653-1.815l-0.232-8.459c-0.024-0.876,0.423-2.254,0.958-2.948
		l5.161-6.707C41.097,19.248,41.263,18.444,41.029,17.724z M38.988,18.71l-5.161,6.707c-0.806,1.047-1.408,2.901-1.372,4.222
		l0.232,8.459c0.005,0.197-0.042,0.318-0.088,0.366c-0.018,0.019-0.178,0.077-0.407-0.007l-7.974-2.835
		c-0.606-0.216-1.395-0.334-2.22-0.334s-1.614,0.118-2.219,0.334l-7.975,2.835c-0.227,0.083-0.388,0.025-0.406,0.007
		c-0.046-0.048-0.093-0.169-0.088-0.366l0.232-8.459c0.037-1.32-0.566-3.175-1.372-4.222L5.012,18.71
		c-0.134-0.175-0.159-0.308-0.139-0.367c0.02-0.061,0.117-0.152,0.328-0.215l8.118-2.393c1.267-0.374,2.844-1.521,3.59-2.609
		l4.784-6.98c0.249-0.363,0.363-0.363,0.612,0l4.784,6.98c0.747,1.09,2.324,2.235,3.591,2.608l8.118,2.394
		c0.21,0.062,0.308,0.154,0.328,0.215C39.146,18.402,39.122,18.535,38.988,18.71z"/>
</g>
</svg>